<svg xmlns="http://www.w3.org/2000/svg" width="47" height="48" viewBox="0 0 47 48">
  <g id="Group_12" data-name="Group 12" transform="translate(-186 -2736)">
    <rect id="Rectangle_21" data-name="Rectangle 21" width="47" height="48" rx="13" transform="translate(186 2736)" fill="#f15a2b"/>
    <g id="water-sport_1" data-name="water-sport 1">
      <path id="Vector" d="M13.143,1.3A2.205,2.205,0,0,1,11.875.929,1.715,1.715,0,0,0,10,.929,2.359,2.359,0,0,1,8.732,1.3,2.359,2.359,0,0,1,7.465.929a1.714,1.714,0,0,0-1.877,0A2.359,2.359,0,0,1,4.321,1.3,2.359,2.359,0,0,1,3.054.929a1.713,1.713,0,0,0-1.876,0,2.193,2.193,0,0,1-1.156.366L0,.646A1.557,1.557,0,0,0,.85.369a2.358,2.358,0,0,1,2.533,0,1.715,1.715,0,0,0,.938.279A1.715,1.715,0,0,0,5.26.369a2.359,2.359,0,0,1,2.535,0,1.715,1.715,0,0,0,.938.279A1.715,1.715,0,0,0,9.671.369a2.36,2.36,0,0,1,2.534,0,1.719,1.719,0,0,0,.941.28,1.719,1.719,0,0,0,.941-.28A2.207,2.207,0,0,1,15.351,0V.65a1.573,1.573,0,0,0-.939.279,2.211,2.211,0,0,1-1.27.369Z" transform="translate(205.676 2766.63)" fill="#fff"/>
      <path id="Vector-2" data-name="Vector" d="M2.205,1.3A2.2,2.2,0,0,1,.939.929,1.572,1.572,0,0,0,0,.649V0A2.2,2.2,0,0,1,1.267.37a1.57,1.57,0,0,0,.938.28,1.57,1.57,0,0,0,.939-.28A2.2,2.2,0,0,1,4.409,0,2.177,2.177,0,0,1,5.646.353l-.327.56a1.551,1.551,0,0,0-.91-.264,1.565,1.565,0,0,0-.935.279,2.2,2.2,0,0,1-1.269.37Z" transform="translate(198.973 2766.631)" fill="#fff"/>
      <path id="Vector-3" data-name="Vector" d="M19.846,1.3A2.209,2.209,0,0,1,18.578.929a1.717,1.717,0,0,0-1.878,0,2.359,2.359,0,0,1-1.267.369A2.359,2.359,0,0,1,14.166.929a1.714,1.714,0,0,0-1.876,0,2.358,2.358,0,0,1-1.267.369A2.358,2.358,0,0,1,9.757.929a1.714,1.714,0,0,0-1.876,0A2.2,2.2,0,0,1,6.614,1.3,2.2,2.2,0,0,1,5.347.929,1.57,1.57,0,0,0,4.41.649a1.57,1.57,0,0,0-.938.28A2.2,2.2,0,0,1,2.207,1.3,2.2,2.2,0,0,1,.94.929,1.57,1.57,0,0,0,0,.649V0A2.2,2.2,0,0,1,1.267.37a1.572,1.572,0,0,0,.939.28A1.57,1.57,0,0,0,3.143.37,2.2,2.2,0,0,1,4.408,0,2.2,2.2,0,0,1,5.676.37a1.57,1.57,0,0,0,.938.28A1.57,1.57,0,0,0,7.552.37a2.358,2.358,0,0,1,2.534,0,1.714,1.714,0,0,0,.938.28,1.714,1.714,0,0,0,.938-.28A2.358,2.358,0,0,1,14.5.37a1.714,1.714,0,0,0,.938.28,1.714,1.714,0,0,0,.938-.28,2.362,2.362,0,0,1,2.536,0,1.719,1.719,0,0,0,.939.279A1.719,1.719,0,0,0,20.786.37,2.209,2.209,0,0,1,22.054,0V.649a1.573,1.573,0,0,0-.941.28,2.209,2.209,0,0,1-1.267.369Z" transform="translate(198.973 2764.36)" fill="#fff"/>
      <path id="Vector-4" data-name="Vector" d="M3.2,1.3A2.205,2.205,0,0,1,1.935.93,1.572,1.572,0,0,0,1,.65,1.492,1.492,0,0,0,.286.8L0,.219A2.145,2.145,0,0,1,1,0a2.205,2.205,0,0,1,1.268.37A1.719,1.719,0,0,0,3.2.651a1.719,1.719,0,0,0,.941-.28A2.207,2.207,0,0,1,5.41,0V.65a1.573,1.573,0,0,0-.939.279A2.211,2.211,0,0,1,3.2,1.3Z" transform="translate(215.617 2762.089)" fill="#fff"/>
      <path id="Vector-5" data-name="Vector" d="M15.431,1.3A2.2,2.2,0,0,1,14.166.929a1.714,1.714,0,0,0-1.877,0,2.359,2.359,0,0,1-1.267.369A2.359,2.359,0,0,1,9.756.929a1.715,1.715,0,0,0-1.877,0A2.205,2.205,0,0,1,6.613,1.3,2.2,2.2,0,0,1,5.346.929a1.572,1.572,0,0,0-.939-.28,1.565,1.565,0,0,0-.935.279,2.2,2.2,0,0,1-1.267.37A2.2,2.2,0,0,1,.939.929,1.572,1.572,0,0,0,0,.649V0A2.2,2.2,0,0,1,1.267.37a1.57,1.57,0,0,0,.938.28,1.57,1.57,0,0,0,.939-.28A2.2,2.2,0,0,1,4.409,0,2.2,2.2,0,0,1,5.676.37a1.57,1.57,0,0,0,.938.28A1.572,1.572,0,0,0,7.553.37a2.359,2.359,0,0,1,2.534,0,1.715,1.715,0,0,0,.938.279A1.715,1.715,0,0,0,11.963.37,2.359,2.359,0,0,1,14.5.37a1.645,1.645,0,0,0,.969.279.581.581,0,0,0,.075,0l.086.643a1.513,1.513,0,0,1-.2.01Z" transform="translate(198.973 2762.09)" fill="#fff"/>
      <path id="Vector-6" data-name="Vector" d="M19.846,1.3A2.209,2.209,0,0,1,18.578.929a1.717,1.717,0,0,0-1.878,0,2.359,2.359,0,0,1-1.267.369A2.359,2.359,0,0,1,14.166.929a1.714,1.714,0,0,0-1.876,0,2.358,2.358,0,0,1-1.267.369A2.358,2.358,0,0,1,9.757.929a1.714,1.714,0,0,0-1.876,0A2.2,2.2,0,0,1,6.614,1.3,2.2,2.2,0,0,1,5.347.929,1.57,1.57,0,0,0,4.41.649a1.57,1.57,0,0,0-.938.28A2.2,2.2,0,0,1,2.207,1.3,2.2,2.2,0,0,1,.94.929,1.57,1.57,0,0,0,0,.649V0A2.2,2.2,0,0,1,1.267.37a1.572,1.572,0,0,0,.939.28A1.57,1.57,0,0,0,3.143.37,2.2,2.2,0,0,1,4.408,0,2.2,2.2,0,0,1,5.676.37a1.57,1.57,0,0,0,.938.28A1.57,1.57,0,0,0,7.552.37a2.358,2.358,0,0,1,2.534,0,1.714,1.714,0,0,0,.938.28,1.714,1.714,0,0,0,.938-.28A2.358,2.358,0,0,1,14.5.37a1.714,1.714,0,0,0,.938.28,1.714,1.714,0,0,0,.938-.28,2.362,2.362,0,0,1,2.536,0,1.719,1.719,0,0,0,.939.279A1.719,1.719,0,0,0,20.786.37,2.209,2.209,0,0,1,22.054,0V.649a1.573,1.573,0,0,0-.941.28,2.209,2.209,0,0,1-1.267.369Z" transform="translate(198.973 2759.82)" fill="#fff"/>
      <path id="Vector-7" data-name="Vector" d="M5.442,10.773l-.612-.215a3.555,3.555,0,0,0-.19-2.784L2.412,3.413a.324.324,0,0,1,.205-.461l4.44-1.184A.567.567,0,0,0,6.78.668L1.406,1.952a.769.769,0,0,0-.5,1.114L2.5,6.03a.324.324,0,0,1-.13.438L.313,7.6,0,7.035l1.778-.98L.336,3.373a1.418,1.418,0,0,1,.921-2.052L6.628.037a1.216,1.216,0,1,1,.6,2.358L3.172,3.475l2.046,4a4.206,4.206,0,0,1,.224,3.294Z" transform="translate(208.756 2750.069)" fill="#fff"/>
      <path id="Vector-8" data-name="Vector" d="M0,0H4.5V.648H0Z" transform="matrix(0.876, -0.483, 0.483, 0.876, 203.681, 2759.906)" fill="#fff"/>
      <path id="Vector-9" data-name="Vector" d="M2.432,4.865a2.435,2.435,0,1,1,1.719-.713,2.432,2.432,0,0,1-1.719.713Zm0-4.216a1.786,1.786,0,1,0,1.261.523A1.784,1.784,0,0,0,2.432.649Z" transform="translate(214.703 2753.82)" fill="#fff"/>
    </g>
  </g>
</svg>
