<svg xmlns="http://www.w3.org/2000/svg" width="47" height="48" viewBox="0 0 47 48">
  <g id="icon_2" data-name="icon 2" transform="translate(-186 -2624)">
    <rect id="Rectangle_21" data-name="Rectangle 21" width="47" height="48" rx="13" transform="translate(186 2624)" fill="#f0bb1f"/>
    <g id="selection_1" data-name="selection 1">
      <g id="Group">
        <g id="Group-2" data-name="Group">
          <path id="Vector" d="M21.455-4.475A.549.549,0,0,1,22-3.936V-.545A.543.543,0,0,1,21.455,0H18.064a.542.542,0,0,1-.539-.545V-1.725H4.475V-.545A.549.549,0,0,1,3.936,0H.545A.55.55,0,0,1,0-.545V-3.936a.542.542,0,0,1,.545-.539H1.725V-17.525H.545A.549.549,0,0,1,0-18.064v-3.392A.55.55,0,0,1,.545-22H3.936a.542.542,0,0,1,.539.545v1.181H17.525v-1.181A.549.549,0,0,1,18.064-22h3.392a.55.55,0,0,1,.545.545v3.392a.542.542,0,0,1-.545.539H20.275V-4.475ZM1.078-3.4v2.319H3.4V-3.4ZM3.4-20.922H1.078V-18.6H3.4Zm14.127,2.858V-19.2H4.475v1.132a.541.541,0,0,1-.539.539H2.8V-4.475H3.936a.541.541,0,0,1,.539.539V-2.8H17.525V-3.936a.541.541,0,0,1,.539-.539H19.2V-17.525H18.064A.541.541,0,0,1,17.525-18.064Zm3.4-.539v-2.319H18.6V-18.6ZM18.6-3.4v2.319h2.319V-3.4Z" transform="translate(221 2637) rotate(180)" fill="#fff"/>
        </g>
      </g>
    </g>
  </g>
</svg>
