<svg xmlns="http://www.w3.org/2000/svg" width="47" height="48" viewBox="0 0 47 48">
  <g id="icon_3" data-name="icon 3" transform="translate(-186 -2848)">
    <rect id="Rectangle_22" data-name="Rectangle 22" width="47" height="48" rx="13" transform="translate(186 2848)" fill="#006380"/>
    <g id="taxi_1" data-name="taxi 1">
      <g id="Taxi_Car_Cab_Vehicle_Transport" data-name="Taxi Car Cab Vehicle Transport">
        <path id="Vector" d="M1.5,0A1.5,1.5,0,1,0,2.561.439,1.5,1.5,0,0,0,1.5,0Zm0,2.25a.75.75,0,1,1,.53-.22A.75.75,0,0,1,1.5,2.25Z" transform="translate(201 2874.125)" fill="#fff"/>
        <path id="Vector-2" data-name="Vector" d="M1.5,0A1.5,1.5,0,1,0,2.561.439,1.5,1.5,0,0,0,1.5,0Zm0,2.25a.75.75,0,1,1,.53-.22A.75.75,0,0,1,1.5,2.25Z" transform="translate(216 2874.125)" fill="#fff"/>
        <path id="Vector-3" data-name="Vector" d="M0,0H6.75V.75H0Z" transform="translate(206.625 2876)" fill="#fff"/>
        <path id="Vector-4" data-name="Vector" d="M0,0H6.75V.75H0Z" transform="translate(206.625 2874.5)" fill="#fff"/>
        <path id="Vector-5" data-name="Vector" d="M0,0H2.25V.75H0Z" transform="translate(208.875 2868.875)" fill="#fff"/>
        <path id="Vector-6" data-name="Vector" d="M22.5,8.625v-.75A1.128,1.128,0,0,0,21.375,6.75H19.89l-.776-2.722L18.881,3.1A1.125,1.125,0,0,0,17.79,2.25H14.625V.75a.752.752,0,0,0-.75-.75H8.625a.752.752,0,0,0-.75.75v1.5H4.71A1.125,1.125,0,0,0,3.619,3.1l-.229.922L2.61,6.75H1.125A1.128,1.128,0,0,0,0,7.875v.75a1.122,1.122,0,0,0,.529.949A1.866,1.866,0,0,0,0,10.875v4.5a1.12,1.12,0,0,0,.375.833v1.417A1.128,1.128,0,0,0,1.5,18.75h3a1.128,1.128,0,0,0,1.125-1.125V16.5h11.25v1.125A1.128,1.128,0,0,0,18,18.75h3a1.128,1.128,0,0,0,1.125-1.125V16.208a1.12,1.12,0,0,0,.375-.833v-4.5a1.866,1.866,0,0,0-.529-1.3,1.122,1.122,0,0,0,.529-.949ZM8.625.75h5.25v1.5H8.625ZM4.346,3.285A.375.375,0,0,1,4.71,3H17.79a.375.375,0,0,1,.364.285l.116.465H4.23ZM4.031,4.5H18.469L19.751,9H8.966A2.247,2.247,0,0,0,4.534,9H2.749ZM8.2,9H5.3A1.494,1.494,0,0,1,8.2,9ZM.75,7.875A.375.375,0,0,1,1.125,7.5H2.4L1.969,9H1.125A.375.375,0,0,1,.75,8.625Zm4.125,9.75A.375.375,0,0,1,4.5,18h-3a.375.375,0,0,1-.375-.375V16.5h3.75Zm16.5,0A.375.375,0,0,1,21,18H18a.375.375,0,0,1-.375-.375V16.5h3.75Zm.375-2.25a.375.375,0,0,1-.375.375H1.125a.375.375,0,0,1-.375-.375V15h21Zm0-1.125H.75V10.875A1.128,1.128,0,0,1,1.875,9.75h18.75a1.128,1.128,0,0,1,1.125,1.125Zm0-5.625A.375.375,0,0,1,21.375,9h-.844L20.1,7.5h1.271a.375.375,0,0,1,.375.375Z" transform="translate(198.75 2863.625)" fill="#fff"/>
      </g>
    </g>
  </g>
</svg>
